# xmcd CD database file
#
# Track frame offsets:
#	187
#	25772
#	49647
#	78487
#	98172
#	122962
#	144782
#	170767
#
# Disc length: 2581 seconds
#
# Revision: 0
# Processed by: cddbd v1.5.1PL0 Copyright (c) Steve Scherf et al.
# Submitted via: CDex 1.51
#
DISCID=610a1308
DTITLE=The Phineas Newborn Trio - Look Out-Phineas Is Back ! 
DYEAR=1976
DGENRE=Jazz
TTITLE0=Salt Peanuts
TTITLE1=Man I Love
TTITLE2=You Are the Sunshine of My Life
TTITLE3=Abbers Song
TTITLE4=Tamarind Blues
TTITLE5=Night in Tunisia
TTITLE6=Sometimes I'm Happy
TTITLE7=Donald's Dream
EXTD=YEAR: 1976
EXTT0=
EXTT1=
EXTT2=
EXTT3=
EXTT4=
EXTT5=
EXTT6=
EXTT7=
PLAYORDER=
